<mxfile host="app.diagrams.net" modified="2022-05-24T09:45:52.291Z" agent="5.0 (X11; Linux x86_64) AppleWebKit/537.36 (KHTML, like Gecko) Chrome/101.0.4951.64 Safari/537.36" etag="wLpAWZSi5LMt55OtEaf4" version="18.0.5" type="github">
  <diagram id="gj5-_C0aXKBgTMH4SPsN" name="Page-1">
    <mxGraphModel dx="1355" dy="777" grid="1" gridSize="10" guides="1" tooltips="1" connect="1" arrows="1" fold="1" page="1" pageScale="1" pageWidth="827" pageHeight="1169" math="0" shadow="0">
      <root>
        <mxCell id="0" />
        <mxCell id="1" parent="0" />
        <mxCell id="w-6a-RiIYNo0i_YmTSSD-1" value="Vecteur" style="swimlane;fontStyle=1;align=center;verticalAlign=top;childLayout=stackLayout;horizontal=1;startSize=26;horizontalStack=0;resizeParent=1;resizeParentMax=0;resizeLast=0;collapsible=1;marginBottom=0;" vertex="1" parent="1">
          <mxGeometry x="319" y="230" width="190" height="60" as="geometry" />
        </mxCell>
        <mxCell id="w-6a-RiIYNo0i_YmTSSD-2" value="+ genre: char" style="text;strokeColor=none;fillColor=none;align=left;verticalAlign=top;spacingLeft=4;spacingRight=4;overflow=hidden;rotatable=0;points=[[0,0.5],[1,0.5]];portConstraint=eastwest;" vertex="1" parent="w-6a-RiIYNo0i_YmTSSD-1">
          <mxGeometry y="26" width="190" height="24" as="geometry" />
        </mxCell>
        <mxCell id="w-6a-RiIYNo0i_YmTSSD-3" value="" style="line;strokeWidth=1;fillColor=none;align=left;verticalAlign=middle;spacingTop=-1;spacingLeft=3;spacingRight=3;rotatable=0;labelPosition=right;points=[];portConstraint=eastwest;" vertex="1" parent="w-6a-RiIYNo0i_YmTSSD-1">
          <mxGeometry y="50" width="190" height="10" as="geometry" />
        </mxCell>
        <mxCell id="w-6a-RiIYNo0i_YmTSSD-22" style="edgeStyle=orthogonalEdgeStyle;rounded=0;orthogonalLoop=1;jettySize=auto;html=1;exitX=0.5;exitY=0;exitDx=0;exitDy=0;entryX=0.25;entryY=1;entryDx=0;entryDy=0;endArrow=block;endFill=0;" edge="1" parent="1" source="w-6a-RiIYNo0i_YmTSSD-4" target="w-6a-RiIYNo0i_YmTSSD-1">
          <mxGeometry relative="1" as="geometry" />
        </mxCell>
        <mxCell id="w-6a-RiIYNo0i_YmTSSD-4" value="Anopheles" style="swimlane;fontStyle=1;align=center;verticalAlign=top;childLayout=stackLayout;horizontal=1;startSize=26;horizontalStack=0;resizeParent=1;resizeParentMax=0;resizeLast=0;collapsible=1;marginBottom=0;" vertex="1" parent="1">
          <mxGeometry x="170" y="445" width="190" height="60" as="geometry" />
        </mxCell>
        <mxCell id="w-6a-RiIYNo0i_YmTSSD-5" value="+ espèce: char" style="text;strokeColor=none;fillColor=none;align=left;verticalAlign=top;spacingLeft=4;spacingRight=4;overflow=hidden;rotatable=0;points=[[0,0.5],[1,0.5]];portConstraint=eastwest;" vertex="1" parent="w-6a-RiIYNo0i_YmTSSD-4">
          <mxGeometry y="26" width="190" height="24" as="geometry" />
        </mxCell>
        <mxCell id="w-6a-RiIYNo0i_YmTSSD-6" value="" style="line;strokeWidth=1;fillColor=none;align=left;verticalAlign=middle;spacingTop=-1;spacingLeft=3;spacingRight=3;rotatable=0;labelPosition=right;points=[];portConstraint=eastwest;" vertex="1" parent="w-6a-RiIYNo0i_YmTSSD-4">
          <mxGeometry y="50" width="190" height="10" as="geometry" />
        </mxCell>
        <mxCell id="w-6a-RiIYNo0i_YmTSSD-7" value="Occurrence du vecteur" style="swimlane;fontStyle=1;align=center;verticalAlign=top;childLayout=stackLayout;horizontal=1;startSize=26;horizontalStack=0;resizeParent=1;resizeParentMax=0;resizeLast=0;collapsible=1;marginBottom=0;" vertex="1" parent="1">
          <mxGeometry x="334" y="60" width="160" height="80" as="geometry" />
        </mxCell>
        <mxCell id="w-6a-RiIYNo0i_YmTSSD-8" value="+ présence: boolean&#xa;+ abondance: real" style="text;strokeColor=none;fillColor=none;align=left;verticalAlign=top;spacingLeft=4;spacingRight=4;overflow=hidden;rotatable=0;points=[[0,0.5],[1,0.5]];portConstraint=eastwest;" vertex="1" parent="w-6a-RiIYNo0i_YmTSSD-7">
          <mxGeometry y="26" width="160" height="44" as="geometry" />
        </mxCell>
        <mxCell id="w-6a-RiIYNo0i_YmTSSD-9" value="" style="line;strokeWidth=1;fillColor=none;align=left;verticalAlign=middle;spacingTop=-1;spacingLeft=3;spacingRight=3;rotatable=0;labelPosition=right;points=[];portConstraint=eastwest;" vertex="1" parent="w-6a-RiIYNo0i_YmTSSD-7">
          <mxGeometry y="70" width="160" height="10" as="geometry" />
        </mxCell>
        <mxCell id="w-6a-RiIYNo0i_YmTSSD-23" style="edgeStyle=orthogonalEdgeStyle;rounded=0;orthogonalLoop=1;jettySize=auto;html=1;exitX=0.5;exitY=0;exitDx=0;exitDy=0;entryX=0.75;entryY=1;entryDx=0;entryDy=0;endArrow=block;endFill=0;" edge="1" parent="1" source="w-6a-RiIYNo0i_YmTSSD-10" target="w-6a-RiIYNo0i_YmTSSD-1">
          <mxGeometry relative="1" as="geometry" />
        </mxCell>
        <mxCell id="w-6a-RiIYNo0i_YmTSSD-10" value="Aedes" style="swimlane;fontStyle=1;align=center;verticalAlign=top;childLayout=stackLayout;horizontal=1;startSize=26;horizontalStack=0;resizeParent=1;resizeParentMax=0;resizeLast=0;collapsible=1;marginBottom=0;" vertex="1" parent="1">
          <mxGeometry x="600" y="445" width="190" height="60" as="geometry" />
        </mxCell>
        <mxCell id="w-6a-RiIYNo0i_YmTSSD-11" value="+ espèce: char" style="text;strokeColor=none;fillColor=none;align=left;verticalAlign=top;spacingLeft=4;spacingRight=4;overflow=hidden;rotatable=0;points=[[0,0.5],[1,0.5]];portConstraint=eastwest;" vertex="1" parent="w-6a-RiIYNo0i_YmTSSD-10">
          <mxGeometry y="26" width="190" height="24" as="geometry" />
        </mxCell>
        <mxCell id="w-6a-RiIYNo0i_YmTSSD-12" value="" style="line;strokeWidth=1;fillColor=none;align=left;verticalAlign=middle;spacingTop=-1;spacingLeft=3;spacingRight=3;rotatable=0;labelPosition=right;points=[];portConstraint=eastwest;" vertex="1" parent="w-6a-RiIYNo0i_YmTSSD-10">
          <mxGeometry y="50" width="190" height="10" as="geometry" />
        </mxCell>
        <mxCell id="w-6a-RiIYNo0i_YmTSSD-24" style="edgeStyle=orthogonalEdgeStyle;rounded=0;orthogonalLoop=1;jettySize=auto;html=1;exitX=0.5;exitY=0;exitDx=0;exitDy=0;entryX=0.25;entryY=1;entryDx=0;entryDy=0;endArrow=block;endFill=0;" edge="1" parent="1" source="w-6a-RiIYNo0i_YmTSSD-16" target="w-6a-RiIYNo0i_YmTSSD-4">
          <mxGeometry relative="1" as="geometry" />
        </mxCell>
        <mxCell id="w-6a-RiIYNo0i_YmTSSD-16" value="An. darlingi" style="swimlane;fontStyle=1;align=center;verticalAlign=top;childLayout=stackLayout;horizontal=1;startSize=26;horizontalStack=0;resizeParent=1;resizeParentMax=0;resizeLast=0;collapsible=1;marginBottom=0;" vertex="1" parent="1">
          <mxGeometry x="60" y="630" width="190" height="140" as="geometry" />
        </mxCell>
        <mxCell id="w-6a-RiIYNo0i_YmTSSD-17" value="+ anthropophilie: boolean (real?)&#xa;+ endophilie: boolean (real?)&#xa;+ endophagie: boolean (real?)&#xa;+..." style="text;strokeColor=none;fillColor=none;align=left;verticalAlign=top;spacingLeft=4;spacingRight=4;overflow=hidden;rotatable=0;points=[[0,0.5],[1,0.5]];portConstraint=eastwest;" vertex="1" parent="w-6a-RiIYNo0i_YmTSSD-16">
          <mxGeometry y="26" width="190" height="104" as="geometry" />
        </mxCell>
        <mxCell id="w-6a-RiIYNo0i_YmTSSD-18" value="" style="line;strokeWidth=1;fillColor=none;align=left;verticalAlign=middle;spacingTop=-1;spacingLeft=3;spacingRight=3;rotatable=0;labelPosition=right;points=[];portConstraint=eastwest;" vertex="1" parent="w-6a-RiIYNo0i_YmTSSD-16">
          <mxGeometry y="130" width="190" height="10" as="geometry" />
        </mxCell>
        <mxCell id="w-6a-RiIYNo0i_YmTSSD-25" style="edgeStyle=orthogonalEdgeStyle;rounded=0;orthogonalLoop=1;jettySize=auto;html=1;exitX=0.5;exitY=0;exitDx=0;exitDy=0;entryX=0.75;entryY=1;entryDx=0;entryDy=0;endArrow=block;endFill=0;" edge="1" parent="1" source="w-6a-RiIYNo0i_YmTSSD-19" target="w-6a-RiIYNo0i_YmTSSD-4">
          <mxGeometry relative="1" as="geometry" />
        </mxCell>
        <mxCell id="w-6a-RiIYNo0i_YmTSSD-19" value="An. marajoara" style="swimlane;fontStyle=1;align=center;verticalAlign=top;childLayout=stackLayout;horizontal=1;startSize=26;horizontalStack=0;resizeParent=1;resizeParentMax=0;resizeLast=0;collapsible=1;marginBottom=0;" vertex="1" parent="1">
          <mxGeometry x="290" y="630" width="190" height="140" as="geometry" />
        </mxCell>
        <mxCell id="w-6a-RiIYNo0i_YmTSSD-20" value="+ anthropophilie: boolean (real?)&#xa;+ endophilie: boolean (real?)&#xa;+ endophagie: boolean (real?)&#xa;+..." style="text;strokeColor=none;fillColor=none;align=left;verticalAlign=top;spacingLeft=4;spacingRight=4;overflow=hidden;rotatable=0;points=[[0,0.5],[1,0.5]];portConstraint=eastwest;" vertex="1" parent="w-6a-RiIYNo0i_YmTSSD-19">
          <mxGeometry y="26" width="190" height="104" as="geometry" />
        </mxCell>
        <mxCell id="w-6a-RiIYNo0i_YmTSSD-21" value="" style="line;strokeWidth=1;fillColor=none;align=left;verticalAlign=middle;spacingTop=-1;spacingLeft=3;spacingRight=3;rotatable=0;labelPosition=right;points=[];portConstraint=eastwest;" vertex="1" parent="w-6a-RiIYNo0i_YmTSSD-19">
          <mxGeometry y="130" width="190" height="10" as="geometry" />
        </mxCell>
      </root>
    </mxGraphModel>
  </diagram>
</mxfile>
